<svg width="24" height="24" viewBox="0 0 24 24" fill="none" xmlns="http://www.w3.org/2000/svg">
<path d="M6.58966 21.9429C5.43206 21.8095 4.35385 21.2876 3.53097 20.4626C2.7081 19.6375 2.18915 18.558 2.0588 17.4C1.87195 15.6497 1.71423 13.8514 1.71423 12.0206C1.71423 10.1897 1.87195 8.39143 2.0588 6.64114C2.18915 5.48319 2.7081 4.4036 3.53097 3.57855C4.35385 2.75349 5.43206 2.23169 6.58966 2.09829C8.35023 1.90629 10.1571 1.73657 11.9999 1.73657C13.8428 1.73657 15.6514 1.90629 17.4102 2.10172C18.5675 2.23548 19.6453 2.75744 20.4679 3.58247C21.2904 4.40749 21.8091 5.48688 21.9394 6.64457C22.1279 8.39314 22.2857 10.1914 22.2857 12.0223C22.2857 13.8531 22.1279 15.6514 21.9411 17.4017C21.8107 18.5597 21.2918 19.6393 20.4689 20.4643C19.646 21.2894 18.5678 21.8112 17.4102 21.9446C16.4316 22.0556 15.4508 22.1471 14.4685 22.2189V16.9577H17.7599V12.8434H14.4685V11.1977C14.4685 10.2891 15.2057 9.552 16.1142 9.552H17.7599V7.08343C17.7599 6.64696 17.5866 6.22836 17.2779 5.91973C16.9693 5.6111 16.5507 5.43772 16.1142 5.43772H15.2914C13.982 5.43772 12.7262 5.95788 11.8003 6.88377C10.8744 7.80966 10.3542 9.06545 10.3542 10.3749V12.8434H7.0628V16.9577H10.3542V22.2651C9.0963 22.1973 7.84082 22.0898 6.58966 21.9429Z" stroke="#274C77" stroke-opacity="0.5" stroke-width="1.71429" stroke-linecap="round" stroke-linejoin="round"/>
</svg>
