<svg width="176" height="45" viewBox="0 0 176 45" fill="none" xmlns="http://www.w3.org/2000/svg">
<path d="M57.9951 3.32761H65.587V18.5196H68.8914V3.32761H76.4822V0.0257568H57.9951V3.32761Z" fill="#001039"/>
<path d="M93.3501 6.71008H81.4481V0H78.1416V18.4917H81.4481V10.0109H93.3501V18.4917H96.6545V0H93.3501V6.71008Z" fill="#001039"/>
<path d="M99.5175 4.992V13.4986C99.5175 16.246 101.739 18.4906 104.489 18.4906H118.002V15.1888H104.489C103.564 15.1888 102.796 14.4216 102.796 13.4975V10.0098H114.698V6.70793H102.796V4.99093C102.796 4.06688 103.564 3.29971 104.489 3.29971H118.002V0H104.489C101.739 0 99.5175 2.24565 99.5175 4.992Z" fill="#001039"/>
<path d="M3.30545 39.4267V26.5062H0V39.1087C0 40.0327 0.210826 40.9052 0.607738 41.6981C1.16492 42.8596 2.11687 43.8116 3.27856 44.3929C4.07239 44.7894 4.94473 45 5.87086 45H15.2591V41.6981L5.55462 41.6724C4.3897 41.5123 3.46465 40.5882 3.30438 39.4267H3.30545Z" fill="#001039"/>
<path d="M25.8483 26.4792L18.0983 41.6712L16.4053 44.9731H21.9954H23.6669H24.0703V41.2812H22.2374C22.1567 41.2812 22.0879 41.2468 22.0427 41.1942C21.9717 41.1168 21.9491 40.9975 22.0061 40.8922L24.9147 35.5725L24.9265 35.5478L25.6149 34.2896C25.7139 34.108 25.9774 34.108 26.0764 34.2896L26.8197 35.6488L26.824 35.6552L29.6852 40.8922C29.7422 40.9975 29.7196 41.1146 29.6486 41.192C29.6045 41.2468 29.5357 41.2812 29.4539 41.2812H27.621V44.9731H28.0244H29.6959H31.5837H35.2871L33.5941 41.6712L25.8462 26.4792H25.8483Z" fill="#001039"/>
<path d="M50.0669 35.7262C50.0669 39.0034 47.3961 41.6713 44.1154 41.6713C40.8347 41.6713 38.166 39.0034 38.166 35.7262V26.4793H34.8595V35.7262C34.8595 40.8257 39.0125 44.9731 44.1164 44.9731C49.2204 44.9731 53.3734 40.8257 53.3734 35.7262V26.4793H50.068V35.7262H50.0669Z" fill="#001039"/>
<path d="M71.353 38.2631L59.4511 29.0957L56.1445 26.561V45.0001H59.4511V33.2969L71.353 42.4632L74.6574 45.0001V26.5062L71.353 26.4794V38.2631Z" fill="#001039"/>
<path d="M76.8486 35.7262C76.8486 40.8256 81.0006 44.9731 86.1056 44.9731H95.3605V41.6712H86.1056C82.8249 41.6712 80.1541 39.0033 80.1541 35.7262C80.1541 32.449 82.8249 29.7833 86.1056 29.7833H95.3605V26.4803H86.1056C81.0006 26.4803 76.8486 30.6289 76.8486 35.7273V35.7262Z" fill="#001039"/>
<path d="M112.997 33.1915H101.095V26.4793H97.79V44.9731H101.095V36.4934H112.997V44.9731H116.304V26.4793H112.997V33.1915Z" fill="#001039"/>
<path d="M134.427 27.9342C133.528 27.0359 132.284 26.4794 130.909 26.4794H119.245V44.9732H122.552V36.4666H131.412V36.4408H131.57C132.072 36.3882 132.548 36.2571 132.997 36.0443C134.716 35.2514 135.907 33.5075 135.907 31.5004C135.907 30.1272 135.352 28.8851 134.453 27.9869L134.427 27.9342ZM131.623 33.0326V33.0584C131.412 33.1658 131.173 33.2185 130.936 33.2185H122.553V29.8102H130.936C131.517 29.8102 131.914 30.0756 132.125 30.2852C132.311 30.4689 132.629 30.8922 132.629 31.5015C132.629 32.1612 132.232 32.7693 131.623 33.0326Z" fill="#001039"/>
<path d="M146.235 26.4794C141.132 26.4794 136.978 30.6279 136.978 35.7263C136.978 40.8247 141.131 44.9732 146.235 44.9732C151.338 44.9732 155.492 40.8257 155.492 35.7263C155.492 30.6268 151.34 26.4794 146.235 26.4794ZM146.235 41.6713C142.956 41.6713 140.285 39.0034 140.285 35.7263C140.285 32.4491 142.956 29.7834 146.235 29.7834C149.513 29.7834 152.186 32.4513 152.186 35.7263C152.186 39.0013 149.515 41.6713 146.235 41.6713Z" fill="#001039"/>
<path d="M166.743 26.5062L166.769 26.4804H157.512V44.9742H166.769C169.308 44.9742 171.609 43.9449 173.275 42.2536C173.459 42.0699 173.647 41.883 173.804 41.6992C175.178 40.0864 175.999 37.9998 175.999 35.7273C175.999 30.63 171.847 26.5072 166.742 26.5072L166.743 26.5062ZM166.743 41.6981H160.794V29.8091H166.743C170.024 29.8091 172.695 32.477 172.695 35.752C172.695 39.027 170.024 41.6971 166.743 41.6971V41.6981Z" fill="#001039"/>
</svg>
