<svg width="24" height="24" viewBox="0 0 24 24" fill="none" xmlns="http://www.w3.org/2000/svg">
<path d="M2.44995 11.419C2.44995 8.402 2.74995 6.893 3.68695 5.956C4.62395 5.019 6.13295 5.019 9.14995 5.019H14.85C17.867 5.019 19.375 5.019 20.313 5.956C21.251 6.893 21.5499 8.402 21.5499 11.419V12.581C21.5499 15.598 21.25 17.107 20.313 18.044C19.376 18.981 17.867 18.981 14.85 18.981H9.14995C6.13295 18.981 4.62395 18.981 3.68695 18.044C2.74995 17.107 2.44995 15.598 2.44995 12.581V11.419Z" stroke="#274C77" stroke-opacity="0.5" stroke-width="1.5" stroke-linecap="round" stroke-linejoin="round"/>
<path d="M14.686 11.491L10.418 8.82399C10.3272 8.76722 10.2228 8.7358 10.1157 8.73299C10.0086 8.73019 9.90273 8.75611 9.80905 8.80805C9.71537 8.86 9.6373 8.93607 9.58295 9.02838C9.52861 9.12069 9.49996 9.22587 9.5 9.33299V14.668C9.50014 14.775 9.52891 14.8801 9.58333 14.9722C9.63775 15.0644 9.71584 15.1403 9.80949 15.1922C9.90314 15.244 10.009 15.2698 10.1159 15.267C10.2229 15.2641 10.3272 15.2327 10.418 15.176L14.686 12.509C14.7724 12.4551 14.8436 12.3801 14.893 12.291C14.9424 12.202 14.9683 12.1018 14.9683 12C14.9683 11.8982 14.9424 11.798 14.893 11.709C14.8436 11.6199 14.7724 11.5449 14.686 11.491Z" stroke="#274C77" stroke-opacity="0.5" stroke-width="1.5" stroke-linejoin="round"/>
</svg>
